<svg aria-hidden="true" style="position:absolute;width:0;height:0;overflow:hidden"
  xmlns="http://www.w3.org/2000/svg">
  <defs>
    <defs>
      <symbol id="icon-left-arrow" viewBox="0 0 32 32">
        <path d="M16.943 23.057l-5.724-5.724h12.781v-2.667h-12.781l5.724-5.724-1.885-1.885-8.943 8.943 8.943 8.943 1.885-1.885z"></path>
      </symbol>
      <symbol id="icon-right-arrow" viewBox="0 0 32 32">
        <path d="M15.057 23.057l1.885 1.885 8.943-8.943-8.943-8.943-1.885 1.885 5.724 5.724h-12.781v2.667h12.781l-5.724 5.724z"></path>
      </symbol>
      <symbol id="icon-icon-close" viewBox="0 0 32 32">
        <path d="M27.179 0.918l-11.315 11.312-11.312-11.312-3.771 3.771 11.312 11.312-11.312 11.312 3.771 3.771 11.312-11.312 11.315 11.312 3.771-3.771-11.312-11.312 11.312-11.312-3.771-3.771z"></path>
      </symbol>
      <symbol id="icon-menu-icon" viewBox="0 0 43 32">
        <path d="M0 0h42.667v5.333h-42.667v-5.333zM10.667 13.333h32v5.333h-32v-5.333zM24 26.667h18.667v5.333h-18.667v-5.333z"></path>
      </symbol>
      <symbol id="icon-mail" viewBox="0 0 32 32">
        <path d="M27 5H5L3 8v16l2 3h22l2-3V8l-2-3zm0 3v1l-11 8L5 9V8h22zM5 24V12l10 8a1 1 0 0 0 2 0l10-8v12H5z"/>
      </symbol>
      <symbol id="icon-phone" viewBox="0 0 32 32">
        <path d="M24 16a1 1 0 0 0-2 0l-2 3-4-3-3-4 3-2a1 1 0 0 0 0-2l-6-5a1 1 0 0 0-2 0L5 7 4 9c0 1 1 8 6 13s12 6 13 6l2-1 4-3a1 1 0 0 0 0-2l-5-6zm-1 9c-1 0-7 0-11-5-5-4-5-10-5-11l2-3 4 3-2 2a1 1 0 0 0 0 1l3 6 6 3a1 1 0 0 0 1 0l2-2 3 4-3 2z"/>
      </symbol>
      <symbol id="icon-map" viewBox="0 0 32 32">
        <path d="M16 19a5 5 0 1 0 0-11 5 5 0 0 0 0 11zm0-8a3 3 0 1 1 0 5 3 3 0 0 1 0-5z"/>
        <path d="M15 29a1 1 0 0 0 2 0s10-7 10-16a11 11 0 0 0-22 0c0 9 10 16 10 16zm1-24c4 0 8 4 8 8 0 6-6 12-8 13-2-1-8-7-8-13 0-4 4-8 8-8z"/>
      </symbol>
    </defs>
  </defs>
</svg>